HIERARCHY
ROOT Hips
{
	OFFSET -3.958830 18.904000 13.208200
	CHANNELS 6 Xposition Yposition Zposition Zrotation Yrotation Xrotation 
	JOINT LHipJoint
	{
		OFFSET 0.000000 0.000000 0.000000
		CHANNELS 3 Zrotation Yrotation Xrotation
		JOINT LeftUpLeg
		{
			OFFSET 1.800000 -1.400000 0.085000
			CHANNELS 3 Zrotation Yrotation Xrotation
			JOINT LeftLeg
			{
				OFFSET 2.215000 -6.000000 0.000000
				CHANNELS 3 Zrotation Yrotation Xrotation
				JOINT LeftFoot
				{
					OFFSET 2.500000 -6.900000 0.000000
					CHANNELS 3 Zrotation Yrotation Xrotation
					JOINT LeftToeBase
					{
						OFFSET 0.200000 -0.500000 1.950000
						CHANNELS 3 Zrotation Yrotation Xrotation
						End Site
						{
							OFFSET 0.000000 0.000000 0.000000
						}
					}
				}
			}
		}
	}
	JOINT RHipJoint
	{
		OFFSET 0.000000 0.000000 0.000000
		CHANNELS 3 Zrotation Yrotation Xrotation
		JOINT RightUpLeg
		{
			OFFSET -1.800000 -1.400000 0.085000
			CHANNELS 3 Zrotation Yrotation Xrotation
			JOINT RightLeg
			{
				OFFSET -2.215000 -6.000000 0.000000
				CHANNELS 3 Zrotation Yrotation Xrotation
				JOINT RightFoot
				{
					OFFSET -2.500000 -6.900000 0.000000
					CHANNELS 3 Zrotation Yrotation Xrotation
					JOINT RightToeBase
					{
						OFFSET -0.200000 -0.500000 1.950000
						CHANNELS 3 Zrotation Yrotation Xrotation
						End Site
						{
							OFFSET 0.000000 0.000000 0.000000
						}
					}
				}
			}
		}
	}
	JOINT LowerBack
	{
		OFFSET 0.000000 0.000000 0.000000
		CHANNELS 3 Zrotation Yrotation Xrotation
		JOINT Spine
		{
			OFFSET -0.087000 1.940000 -0.288900
			CHANNELS 3 Zrotation Yrotation Xrotation
			JOINT Spine1
			{
				OFFSET 0.000000 1.950000 0.060000
				CHANNELS 3 Zrotation Yrotation Xrotation
				JOINT Neck
				{
					OFFSET 0.000000 0.000000 0.000000
					CHANNELS 3 Zrotation Yrotation Xrotation
					JOINT Neck1
					{
						OFFSET 0.000000 1.600000 0.340000
						CHANNELS 3 Zrotation Yrotation Xrotation
						JOINT Head
						{
							OFFSET 0.000000 1.667000 -0.240000
							CHANNELS 3 Zrotation Yrotation Xrotation
							End Site
							{
								OFFSET 0.000000 0.000000 0.000000
							}
						}
					}
				}
				JOINT LeftShoulder
				{
					OFFSET 0.000000 0.000000 0.000000
					CHANNELS 3 Zrotation Yrotation Xrotation
					JOINT LeftArm
					{
						OFFSET 2.700000 1.550000 -0.730000
						CHANNELS 3 Zrotation Yrotation Xrotation
						JOINT LeftForeArm
						{
							OFFSET 5.450000 0.000000 0.000000
							CHANNELS 3 Zrotation Yrotation Xrotation
							JOINT LeftHand
							{
								OFFSET 3.450000 0.000000 0.000000
								CHANNELS 3 Zrotation Yrotation Xrotation
								JOINT LeftHandIndex1
								{
									OFFSET 0.750000 0.000000 0.000000
									CHANNELS 3 Zrotation Yrotation Xrotation
									End Site
									{
										OFFSET 0.000000 0.000000 0.000000
									}
								}
							}
						}
					}
				}
				JOINT RightShoulder
				{
					OFFSET 0.000000 0.000000 0.000000
					CHANNELS 3 Zrotation Yrotation Xrotation
					JOINT RightArm
					{
						OFFSET -2.700000 1.550000 -0.730000
						CHANNELS 3 Zrotation Yrotation Xrotation
						JOINT RightForeArm
						{
							OFFSET -5.450000 0.000000 0.000000
							CHANNELS 3 Zrotation Yrotation Xrotation
							JOINT RightHand
							{
								OFFSET -3.450000 0.000000 0.000000
								CHANNELS 3 Zrotation Yrotation Xrotation
								JOINT RightHandIndex1
								{
									OFFSET -0.750000 0.000000 0.000000
									CHANNELS 3 Zrotation Yrotation Xrotation
									End Site
									{
										OFFSET 0.000000 0.000000 0.000000
									}
								}
							}
						}
					}
				}
			}
		}
	}
}
MOTION
Frames: 6
Frame Time: 0.016667
-0.251140 17.332020 -2.381490 -1.244860 0.333528 -8.587677 -14.398205 12.438044 2.168038 12.596598 0.137029 -2.474247 -3.999176 4.726722 5.295879 -0.780315 4.748654 3.266665 0.541360 0.448580 0.068940 19.118026 -11.820610 2.437070 -13.144533 -0.915895 -1.865577 -1.728367 -3.540155 5.355160 -0.161540 -4.788569 2.996317 0.717030 0.872960 0.067730 -5.909195 0.905309 -6.497764 17.896217 -0.499240 3.081342 -11.554766 1.982422 42.042434 0.306726 -5.836891 -18.619544 -11.216290 4.436926 31.885553 2.257380 -3.204000 -3.175280 -14.147174 -37.067452 13.722726 -46.819597 -48.725133 2.165423 121.359944 -16.781905 -58.701570 -4.261844 2.800079 -0.131930 0.639990 -0.607900 0.374790 15.775820 40.291014 19.676261 47.039440 49.719874 -2.369764 -117.152107 34.147428 -77.129964 1.654633 -1.582705 -0.411770 0.618310 0.063590 -0.019980 
-0.264300 17.341680 -2.388950 -0.919328 0.383882 -8.893114 -14.422277 12.449702 2.158133 12.301264 0.191439 -2.245657 -3.916446 4.720874 5.319469 -0.759405 4.740153 3.258432 0.530470 0.430590 0.071110 19.099139 -11.782047 2.454066 -13.520759 -0.941875 -1.425420 -1.512799 -3.611750 4.967846 -0.177564 -4.843261 2.970284 0.691560 0.857680 0.087390 -5.851017 0.821551 -6.500043 17.198073 -0.431704 3.538231 -10.904968 1.975829 42.097461 0.039829 -5.694879 -18.267808 -10.884457 4.245295 31.736892 2.255980 -3.162900 -3.201250 -13.806432 -37.464611 13.698201 -44.606697 -47.454649 1.978310 122.831762 -17.343921 -60.994652 -4.272185 2.803762 -0.130840 0.634680 -0.597480 0.357810 15.885858 40.684015 19.492468 44.217725 48.128085 -2.815246 -119.194118 33.634418 -78.889820 1.652856 -1.576863 -0.391300 0.588180 0.072370 -0.020720 
-0.284530 17.350770 -2.390180 -0.940689 0.416516 -9.419400 -14.434216 12.407857 2.133486 12.337847 0.244350 -1.659898 -3.630679 4.679654 5.105027 -0.744923 4.766044 3.261843 0.505790 0.378770 0.063960 19.099635 -11.805071 2.451840 -13.489086 -1.028268 -0.895739 -1.596430 -3.675272 4.999469 -0.186497 -4.910708 2.953057 0.659690 0.857640 0.089920 -5.834689 0.924858 -6.469333 17.184060 -0.388380 4.129667 -10.410454 1.834055 41.748525 -0.281766 -5.619976 -17.348196 -10.530926 3.997265 31.159180 2.285420 -3.209830 -2.682550 -12.655773 -37.035668 13.362655 -42.138146 -45.526821 2.863171 124.731048 -18.643752 -64.496671 -4.283444 2.811346 -0.119220 0.632560 -0.609120 0.352920 15.369297 40.388170 18.583313 41.290756 45.911307 -1.599349 -122.170331 32.642400 -81.369016 1.623920 -1.607615 -0.402330 0.567630 0.079610 -0.032000 
-0.297750 17.355900 -2.387700 -1.144718 0.710020 -10.080840 -14.456612 12.380874 2.078500 12.237144 0.322588 -1.019759 -2.727681 4.526792 4.983525 -0.693552 4.700646 3.289180 0.502490 0.374240 0.063530 19.090285 -11.824300 2.477284 -13.571539 -1.183959 -0.015976 -1.176576 -3.844232 4.870903 -0.223697 -5.024580 2.924139 0.629670 0.832590 0.104180 -5.792602 1.020292 -6.437244 17.218127 -0.380539 4.953578 -10.045911 1.543138 41.186475 -0.329459 -5.340635 -16.176847 -9.863194 3.374416 30.384784 1.976000 -3.283550 -2.451290 -11.229963 -36.639390 12.892592 -38.152056 -43.852072 3.694717 127.001592 -19.048140 -66.506178 -4.270425 2.848413 -0.127270 0.621330 -0.591700 0.359620 13.991471 39.862056 17.235330 37.547944 43.211674 -0.381026 -124.754333 31.523314 -82.972994 1.612598 -1.672833 -0.370500 0.526360 0.060050 -0.023520 
-0.309710 17.364910 -2.385230 -1.701525 1.085128 -11.059851 -14.465554 12.330384 2.013839 12.731531 0.420946 -0.263946 -2.072186 4.515318 5.091884 -0.636151 4.710866 3.298272 0.449500 0.310790 0.043380 19.093494 -11.886750 2.497547 -13.298084 -1.431892 1.021666 -0.814700 -4.064050 5.098231 -0.242982 -5.136334 2.911750 0.568760 0.827970 0.092850 -5.785632 1.228264 -6.405875 17.812601 -0.565602 6.012316 -10.062661 1.083943 40.563117 -0.041673 -5.007755 -14.980337 -9.083571 3.027938 29.736618 1.808590 -3.128690 -1.762660 -8.534420 -35.856430 12.526717 -33.615498 -41.476907 3.968378 129.531694 -19.117653 -68.315349 -4.281533 2.850889 -0.126670 0.614510 -0.594320 0.346810 10.842086 38.887384 15.604931 33.545782 40.772917 0.377636 -126.212223 30.738871 -83.250587 1.630328 -1.693902 -0.369710 0.507300 0.066150 -0.023030 
-0.329350 17.370820 -2.378290 -1.876828 0.540259 -11.824069 -14.499613 12.313356 1.989351 13.007693 0.557576 0.604630 -1.781468 4.572350 5.118756 -0.589931 4.784394 3.287764 0.383410 0.225780 0.016070 19.067423 -11.883278 2.530274 -13.250849 -1.570705 1.918992 -0.462548 -4.233952 4.913243 -0.251958 -5.228809 2.904415 0.504630 0.842420 0.087860 -5.696516 1.273999 -6.395037 17.686108 -0.469301 7.155730 -9.391839 0.999489 40.057769 0.054318 -4.837632 -14.135045 -8.534319 2.876067 28.784017 1.677930 -2.867810 -1.160130 -6.102577 -34.767838 12.325973 -29.041601 -38.873274 4.239718 133.099353 -17.955124 -69.484167 -4.302505 2.856698 -0.115480 0.618990 -0.604200 0.327910 8.270307 37.993408 14.274823 28.291138 37.914592 0.287603 -128.250582 29.407283 -82.619363 1.650391 -1.715896 -0.384650 0.502690 0.092780 -0.027850 
